<?xml version="1.0" encoding="utf-8" ?>
<svg baseProfile="full" height="1000" version="1.1" width="1000" xmlns="http://www.w3.org/2000/svg" xmlns:ev="http://www.w3.org/2001/xml-events" xmlns:xlink="http://www.w3.org/1999/xlink"><defs /><line stroke="rgb(0%,0%,0%)" stroke-width="2" x1="557.5178833007812" x2="557.5178833007812" y1="938.4629516601562" y2="682.1883239746094" /><line stroke="rgb(0%,0%,0%)" stroke-width="2" x1="552.96875" x2="557.5178833007812" y1="677.0932922363281" y2="682.1883239746094" /><line stroke="rgb(0%,0%,0%)" stroke-width="2" x1="562.4085083007812" x2="557.5178833007812" y1="676.7109680175781" y2="682.1883239746094" /><line stroke="rgb(0%,0%,0%)" stroke-width="2" x1="557.5178833007812" x2="604.2345581054688" y1="938.4629516601562" y2="990.7856273651123" /><line stroke="rgb(0%,0%,0%)" stroke-width="2" x1="604.2345581054688" x2="604.2345581054688" y1="991.6597652435303" y2="990.7856273651123" /><line stroke="rgb(0%,0%,0%)" stroke-width="2" x1="609.1251831054688" x2="604.2345581054688" y1="985.2920322418213" y2="990.7856273651123" /><line stroke="rgb(0%,0%,0%)" stroke-width="2" x1="279.6524658203125" x2="279.6524658203125" y1="800.1458892822266" y2="623.6562194824219" /><line stroke="rgb(0%,0%,0%)" stroke-width="2" x1="274.27032470703125" x2="279.6524658203125" y1="617.6282348632812" y2="623.6562194824219" /><line stroke="rgb(0%,0%,0%)" stroke-width="2" x1="280.5331726074219" x2="279.6524658203125" y1="622.6680908203125" y2="623.6562194824219" /><line stroke="rgb(0%,0%,0%)" stroke-width="2" x1="279.6524658203125" x2="276.3184509277344" y1="800.1458892822266" y2="803.8799743652344" /><line stroke="rgb(0%,0%,0%)" stroke-width="2" x1="275.5084228515625" x2="276.3184509277344" y1="802.9727325439453" y2="803.8799743652344" /><line stroke="rgb(0%,0%,0%)" stroke-width="2" x1="276.3180236816406" x2="276.3184509277344" y1="815.6388092041016" y2="803.8799743652344" /><line stroke="rgb(0%,0%,0%)" stroke-width="2" x1="683.4651489257812" x2="683.4651489257812" y1="749.7542877197266" y2="696.5783996582031" /><line stroke="rgb(0%,0%,0%)" stroke-width="2" x1="682.4158935546875" x2="683.4651489257812" y1="695.4032287597656" y2="696.5783996582031" /><line stroke="rgb(0%,0%,0%)" stroke-width="2" x1="688.6685791015625" x2="683.4651489257812" y1="690.7520751953125" y2="696.5783996582031" /><line stroke="rgb(0%,0%,0%)" stroke-width="2" x1="271.6402587890625" x2="206.53506469726562" y1="524.4814147949219" y2="597.3992309570312" /><line stroke="rgb(0%,0%,0%)" stroke-width="2" x1="201.85862731933594" x2="206.53506469726562" y1="592.16162109375" y2="597.3992309570312" /><line stroke="rgb(0%,0%,0%)" stroke-width="2" x1="206.52467346191406" x2="206.53506469726562" y1="614.893310546875" y2="597.3992309570312" /><line stroke="rgb(0%,0%,0%)" stroke-width="2" x1="271.6402587890625" x2="377.34814453125" y1="524.4814147949219" y2="642.8742370605469" /><line stroke="rgb(0%,0%,0%)" stroke-width="2" x1="379.4015197753906" x2="377.34814453125" y1="640.574462890625" y2="642.8742370605469" /><line stroke="rgb(0%,0%,0%)" stroke-width="2" x1="377.3659362792969" x2="377.34814453125" y1="660.3610229492188" y2="642.8742370605469" /><line stroke="rgb(0%,0%,0%)" stroke-width="2" x1="948.8812866210938" x2="928.590087890625" y1="320.78155517578125" y2="343.5076904296875" /><line stroke="rgb(0%,0%,0%)" stroke-width="2" x1="928.590087890625" x2="928.590087890625" y1="356.9024658203125" y2="343.5076904296875" /><line stroke="rgb(0%,0%,0%)" stroke-width="2" x1="924.4476318359375" x2="928.590087890625" y1="338.86187744140625" y2="343.5076904296875" /><line stroke="rgb(0%,0%,0%)" stroke-width="2" x1="684.6865844726562" x2="625.4312133789062" y1="768.5087432861328" y2="834.874755859375" /><line stroke="rgb(0%,0%,0%)" stroke-width="2" x1="625.4312133789062" x2="625.4312133789062" y1="854.494384765625" y2="834.874755859375" /><line stroke="rgb(0%,0%,0%)" stroke-width="2" x1="620.5364990234375" x2="625.4312133789062" y1="829.3717041015625" y2="834.874755859375" /><line stroke="rgb(0%,0%,0%)" stroke-width="2" x1="684.6865844726562" x2="707.3493041992188" y1="768.5087432861328" y2="793.8909912109375" /><line stroke="rgb(0%,0%,0%)" stroke-width="2" x1="707.3493041992188" x2="707.3493041992188" y1="813.5247039794922" y2="793.8909912109375" /><line stroke="rgb(0%,0%,0%)" stroke-width="2" x1="708.575439453125" x2="707.3493041992188" y1="792.5094604492188" y2="793.8909912109375" /><line stroke="rgb(0%,0%,0%)" stroke-width="2" x1="224.52767944335938" x2="224.52767944335938" y1="995.1987957954407" y2="880.9944305419922" /><line stroke="rgb(0%,0%,0%)" stroke-width="2" x1="224.3997802734375" x2="224.52767944335938" y1="880.8511810302734" y2="880.9944305419922" /><line stroke="rgb(0%,0%,0%)" stroke-width="2" x1="232.0485382080078" x2="224.52767944335938" y1="872.5739135742188" y2="880.9944305419922" /><line stroke="rgb(0%,0%,0%)" stroke-width="2" x1="368.2732238769531" x2="429.7997741699219" y1="490.18341064453125" y2="559.0931396484375" /><line stroke="rgb(0%,0%,0%)" stroke-width="2" x1="429.7997741699219" x2="429.7997741699219" y1="580.1427612304688" y2="559.0931396484375" /><line stroke="rgb(0%,0%,0%)" stroke-width="2" x1="436.2186279296875" x2="429.7997741699219" y1="551.8827819824219" y2="559.0931396484375" /><line stroke="rgb(0%,0%,0%)" stroke-width="2" x1="593.9247436523438" x2="593.9247436523438" y1="873.2913284301758" y2="665.8561096191406" /><line stroke="rgb(0%,0%,0%)" stroke-width="2" x1="584.9287109375" x2="593.9247436523438" y1="655.7805480957031" y2="665.8561096191406" /><line stroke="rgb(0%,0%,0%)" stroke-width="2" x1="594.6055297851562" x2="593.9247436523438" y1="665.0903930664062" y2="665.8561096191406" /><line stroke="rgb(0%,0%,0%)" stroke-width="2" x1="593.9247436523438" x2="573.3195190429688" y1="873.2913284301758" y2="896.3692169189453" /><line stroke="rgb(0%,0%,0%)" stroke-width="2" x1="564.3214721679688" x2="573.3195190429688" y1="886.2914352416992" y2="896.3692169189453" /><line stroke="rgb(0%,0%,0%)" stroke-width="2" x1="573.3175048828125" x2="573.3195190429688" y1="918.0865478515625" y2="896.3692169189453" /><line stroke="rgb(0%,0%,0%)" stroke-width="2" x1="354.07037353515625" x2="354.07037353515625" y1="318.31976318359375" y2="194.83575439453125" /><line stroke="rgb(0%,0%,0%)" stroke-width="2" x1="342.9098205566406" x2="354.07037353515625" y1="182.3359375" y2="194.83575439453125" /><line stroke="rgb(0%,0%,0%)" stroke-width="2" x1="357.55548095703125" x2="354.07037353515625" y1="190.929443359375" y2="194.83575439453125" /><line stroke="rgb(0%,0%,0%)" stroke-width="2" x1="354.07037353515625" x2="331.4637756347656" y1="318.31976318359375" y2="343.63916015625" /><line stroke="rgb(0%,0%,0%)" stroke-width="2" x1="320.3012390136719" x2="331.4637756347656" y1="331.13714599609375" y2="343.63916015625" /><line stroke="rgb(0%,0%,0%)" stroke-width="2" x1="331.4617919921875" x2="331.4637756347656" y1="352.5589599609375" y2="343.63916015625" /><line stroke="rgb(0%,0%,0%)" stroke-width="2" x1="784.04345703125" x2="751.4740600585938" y1="444.22918701171875" y2="480.7069091796875" /><line stroke="rgb(0%,0%,0%)" stroke-width="2" x1="744.6670532226562" x2="751.4740600585938" y1="473.0830078125" y2="480.7069091796875" /><line stroke="rgb(0%,0%,0%)" stroke-width="2" x1="751.4696655273438" x2="751.4740600585938" y1="485.09454345703125" y2="480.7069091796875" /><line stroke="rgb(0%,0%,0%)" stroke-width="2" x1="784.04345703125" x2="846.815673828125" y1="444.22918701171875" y2="514.5340881347656" /><line stroke="rgb(0%,0%,0%)" stroke-width="2" x1="851.6746826171875" x2="846.815673828125" y1="509.092041015625" y2="514.5340881347656" /><line stroke="rgb(0%,0%,0%)" stroke-width="2" x1="846.82568359375" x2="846.815673828125" y1="544.9602661132812" y2="514.5340881347656" /><line stroke="rgb(0%,0%,0%)" stroke-width="2" x1="720.9866333007812" x2="720.9866333007812" y1="609.8069152832031" y2="498.7471923828125" /><line stroke="rgb(0%,0%,0%)" stroke-width="2" x1="708.7675170898438" x2="720.9866333007812" y1="485.061767578125" y2="498.7471923828125" /><line stroke="rgb(0%,0%,0%)" stroke-width="2" x1="729.0584106445312" x2="720.9866333007812" y1="489.7052307128906" y2="498.7471923828125" /><line stroke="rgb(0%,0%,0%)" stroke-width="2" x1="720.9866333007812" x2="691.303955078125" y1="609.8069152832031" y2="643.0515441894531" /><line stroke="rgb(0%,0%,0%)" stroke-width="2" x1="688.9205932617188" x2="691.303955078125" y1="640.3822021484375" y2="643.0515441894531" /><line stroke="rgb(0%,0%,0%)" stroke-width="2" x1="691.2992553710938" x2="691.303955078125" y1="653.8800659179688" y2="643.0515441894531" /><line stroke="rgb(0%,0%,0%)" stroke-width="2" x1="871.0020141601562" x2="871.0020141601562" y1="262.75506591796875" y2="148.16802978515625" /><line stroke="rgb(0%,0%,0%)" stroke-width="2" x1="878.610595703125" x2="871.0020141601562" y1="139.64642333984375" y2="148.16802978515625" /><line stroke="rgb(0%,0%,0%)" stroke-width="2" x1="858.74853515625" x2="871.0020141601562" y1="134.44598388671875" y2="148.16802978515625" /><line stroke="rgb(0%,0%,0%)" stroke-width="2" x1="871.0020141601562" x2="822.90576171875" y1="262.75506591796875" y2="316.62286376953125" /><line stroke="rgb(0%,0%,0%)" stroke-width="2" x1="822.90576171875" x2="822.90576171875" y1="328.73883056640625" y2="316.62286376953125" /><line stroke="rgb(0%,0%,0%)" stroke-width="2" x1="810.6522827148438" x2="822.90576171875" y1="302.88519287109375" y2="316.62286376953125" /><line stroke="rgb(0%,0%,0%)" stroke-width="2" x1="453.819580078125" x2="373.3805236816406" y1="631.16015625" y2="721.2519226074219" /><line stroke="rgb(0%,0%,0%)" stroke-width="2" x1="371.2781677246094" x2="373.3805236816406" y1="718.8972778320312" y2="721.2519226074219" /><line stroke="rgb(0%,0%,0%)" stroke-width="2" x1="373.3670654296875" x2="373.3805236816406" y1="756.9013519287109" y2="721.2519226074219" /><line stroke="rgb(0%,0%,0%)" stroke-width="2" x1="330.2176513671875" x2="293.7876281738281" y1="93.267333984375" y2="134.0689697265625" /><line stroke="rgb(0%,0%,0%)" stroke-width="2" x1="290.59234619140625" x2="293.7876281738281" y1="130.490234375" y2="134.0689697265625" /><line stroke="rgb(0%,0%,0%)" stroke-width="2" x1="293.78192138671875" x2="293.7876281738281" y1="170.20635986328125" y2="134.0689697265625" /><line stroke="rgb(0%,0%,0%)" stroke-width="2" x1="330.2176513671875" x2="388.2501220703125" y1="93.267333984375" y2="158.263671875" /><line stroke="rgb(0%,0%,0%)" stroke-width="2" x1="398.9044189453125" x2="388.2501220703125" y1="146.33087158203125" y2="158.263671875" /><line stroke="rgb(0%,0%,0%)" stroke-width="2" x1="388.25823974609375" x2="388.2501220703125" y1="194.39544677734375" y2="158.263671875" /><line stroke="rgb(0%,0%,0%)" stroke-width="2" x1="787.3878173828125" x2="787.3878173828125" y1="414.4066162109375" y2="350.22625732421875" /><line stroke="rgb(0%,0%,0%)" stroke-width="2" x1="801.3782958984375" x2="787.3878173828125" y1="334.55694580078125" y2="350.22625732421875" /><line stroke="rgb(0%,0%,0%)" stroke-width="2" x1="782.0899047851562" x2="787.3878173828125" y1="344.289306640625" y2="350.22625732421875" /><line stroke="rgb(0%,0%,0%)" stroke-width="2" x1="787.3878173828125" x2="851.6660766601562" y1="414.4066162109375" y2="486.39825439453125" /><line stroke="rgb(0%,0%,0%)" stroke-width="2" x1="865.6652221679688" x2="851.6660766601562" y1="470.71923828125" y2="486.39825439453125" /><line stroke="rgb(0%,0%,0%)" stroke-width="2" x1="851.6746826171875" x2="851.6660766601562" y1="509.092041015625" y2="486.39825439453125" /><line stroke="rgb(0%,0%,0%)" stroke-width="2" x1="121.05777740478516" x2="121.05777740478516" y1="956.156681060791" y2="914.8662567138672" /><line stroke="rgb(0%,0%,0%)" stroke-width="2" x1="128.15792846679688" x2="121.05777740478516" y1="906.9140853881836" y2="914.8662567138672" /><line stroke="rgb(0%,0%,0%)" stroke-width="2" x1="111.99424743652344" x2="121.05777740478516" y1="904.7158584594727" y2="914.8662567138672" /><line stroke="rgb(0%,0%,0%)" stroke-width="2" x1="743.2013549804688" x2="743.2013549804688" y1="627.4389953613281" y2="531.5885009765625" /><line stroke="rgb(0%,0%,0%)" stroke-width="2" x1="755.3761596679688" x2="743.2013549804688" y1="517.9527282714844" y2="531.5885009765625" /><line stroke="rgb(0%,0%,0%)" stroke-width="2" x1="738.2050170898438" x2="743.2013549804688" y1="525.9897766113281" y2="531.5885009765625" /><line stroke="rgb(0%,0%,0%)" stroke-width="2" x1="743.2013549804688" x2="705.4421997070312" y1="627.4389953613281" y2="669.729248046875" /><line stroke="rgb(0%,0%,0%)" stroke-width="2" x1="705.4421997070312" x2="705.4421997070312" y1="674.8564758300781" y2="669.729248046875" /><line stroke="rgb(0%,0%,0%)" stroke-width="2" x1="691.2992553710938" x2="705.4421997070312" y1="653.8800659179688" y2="669.729248046875" /><line stroke="rgb(0%,0%,0%)" stroke-width="2" x1="500.00885009765625" x2="593.2635498046875" y1="281.2044677734375" y2="385.64971923828125" /><line stroke="rgb(0%,0%,0%)" stroke-width="2" x1="594.73193359375" x2="593.2635498046875" y1="384.005126953125" y2="385.64971923828125" /><line stroke="rgb(0%,0%,0%)" stroke-width="2" x1="593.2793579101562" x2="593.2635498046875" y1="423.071533203125" y2="385.64971923828125" /><line stroke="rgb(0%,0%,0%)" stroke-width="2" x1="286.3155212402344" x2="316.6651611328125" y1="335.13958740234375" y2="369.13116455078125" /><line stroke="rgb(0%,0%,0%)" stroke-width="2" x1="331.4617919921875" x2="316.6651611328125" y1="352.5589599609375" y2="369.13116455078125" /><line stroke="rgb(0%,0%,0%)" stroke-width="2" x1="316.6678161621094" x2="316.6651611328125" y1="373.00238037109375" y2="369.13116455078125" /><line stroke="rgb(0%,0%,0%)" stroke-width="2" x1="267.3034362792969" x2="255.54592895507812" y1="165.05035400390625" y2="178.21875" /><line stroke="rgb(0%,0%,0%)" stroke-width="2" x1="255.54592895507812" x2="255.54592895507812" y1="203.0438232421875" y2="178.21875" /><line stroke="rgb(0%,0%,0%)" stroke-width="2" x1="245.1410369873047" x2="255.54592895507812" y1="166.56475830078125" y2="178.21875" /><line stroke="rgb(0%,0%,0%)" stroke-width="2" x1="267.3034362792969" x2="299.2822265625" y1="165.05035400390625" y2="200.8665771484375" /><line stroke="rgb(0%,0%,0%)" stroke-width="2" x1="299.2822265625" x2="299.2822265625" y1="241.8529052734375" y2="200.8665771484375" /><line stroke="rgb(0%,0%,0%)" stroke-width="2" x1="301.1094970703125" x2="299.2822265625" y1="198.8084716796875" y2="200.8665771484375" /><line stroke="rgb(0%,0%,0%)" stroke-width="2" x1="251.45553588867188" x2="251.45553588867188" y1="223.79248046875" y2="207.62506103515625" /><line stroke="rgb(0%,0%,0%)" stroke-width="2" x1="255.54592895507812" x2="251.45553588867188" y1="203.0438232421875" y2="207.62506103515625" /><line stroke="rgb(0%,0%,0%)" stroke-width="2" x1="250.7527313232422" x2="251.45553588867188" y1="206.83660888671875" y2="207.62506103515625" /><line stroke="rgb(0%,0%,0%)" stroke-width="2" x1="251.45553588867188" x2="270.1228332519531" y1="223.79248046875" y2="244.6998291015625" /><line stroke="rgb(0%,0%,0%)" stroke-width="2" x1="273.0067138671875" x2="270.1228332519531" y1="241.46990966796875" y2="244.6998291015625" /><line stroke="rgb(0%,0%,0%)" stroke-width="2" x1="270.12554931640625" x2="270.1228332519531" y1="284.26123046875" y2="244.6998291015625" /><line stroke="rgb(0%,0%,0%)" stroke-width="2" x1="133.68553161621094" x2="133.68553161621094" y1="498.87591552734375" y2="459.0565185546875" /><line stroke="rgb(0%,0%,0%)" stroke-width="2" x1="128.44296264648438" x2="133.68553161621094" y1="453.184814453125" y2="459.0565185546875" /><line stroke="rgb(0%,0%,0%)" stroke-width="2" x1="143.95294189453125" x2="133.68553161621094" y1="447.558837890625" y2="459.0565185546875" /><line stroke="rgb(0%,0%,0%)" stroke-width="2" x1="488.89898681640625" x2="488.89898681640625" y1="953.3777694702148" y2="765.9101104736328" /><line stroke="rgb(0%,0%,0%)" stroke-width="2" x1="477.0437316894531" x2="488.89898681640625" y1="752.6322174072266" y2="765.9101104736328" /><line stroke="rgb(0%,0%,0%)" stroke-width="2" x1="505.6322937011719" x2="488.89898681640625" y1="747.1707000732422" y2="765.9101104736328" /><line stroke="rgb(0%,0%,0%)" stroke-width="2" x1="351.3622741699219" x2="398.8991394042969" y1="84.82611083984375" y2="138.0673828125" /><line stroke="rgb(0%,0%,0%)" stroke-width="2" x1="415.76031494140625" x2="398.8991394042969" y1="119.182861328125" y2="138.0673828125" /><line stroke="rgb(0%,0%,0%)" stroke-width="2" x1="398.9044189453125" x2="398.8991394042969" y1="146.33087158203125" y2="138.0673828125" /><line stroke="rgb(0%,0%,0%)" stroke-width="2" x1="146.93524169921875" x2="146.93524169921875" y1="405.96942138671875" y2="387.384521484375" /><line stroke="rgb(0%,0%,0%)" stroke-width="2" x1="145.26840209960938" x2="146.93524169921875" y1="385.51763916015625" y2="387.384521484375" /><line stroke="rgb(0%,0%,0%)" stroke-width="2" x1="154.7958526611328" x2="146.93524169921875" y1="378.58294677734375" y2="387.384521484375" /><line stroke="rgb(0%,0%,0%)" stroke-width="2" x1="890.9037475585938" x2="901.4412231445312" y1="265.186279296875" y2="276.98828125" /><line stroke="rgb(0%,0%,0%)" stroke-width="2" x1="901.4412231445312" x2="901.4412231445312" y1="291.932373046875" y2="276.98828125" /><line stroke="rgb(0%,0%,0%)" stroke-width="2" x1="906.6084594726562" x2="901.4412231445312" y1="271.1988525390625" y2="276.98828125" /><line stroke="rgb(0%,0%,0%)" stroke-width="2" x1="346.30609130859375" x2="292.34814453125" y1="354.93988037109375" y2="415.372802734375" /><line stroke="rgb(0%,0%,0%)" stroke-width="2" x1="292.34814453125" x2="292.34814453125" y1="463.1165771484375" y2="415.372802734375" /><line stroke="rgb(0%,0%,0%)" stroke-width="2" x1="288.8310852050781" x2="292.34814453125" y1="411.41424560546875" y2="415.372802734375" /><line stroke="rgb(0%,0%,0%)" stroke-width="2" x1="346.30609130859375" x2="370.18524169921875" y1="354.93988037109375" y2="381.68450927734375" /><line stroke="rgb(0%,0%,0%)" stroke-width="2" x1="370.18524169921875" x2="370.18524169921875" y1="429.43994140625" y2="381.68450927734375" /><line stroke="rgb(0%,0%,0%)" stroke-width="2" x1="373.04443359375" x2="370.18524169921875" y1="378.47412109375" y2="381.68450927734375" /><line stroke="rgb(0%,0%,0%)" stroke-width="2" x1="237.59918212890625" x2="245.140869140625" y1="133.78631591796875" y2="142.23297119140625" /><line stroke="rgb(0%,0%,0%)" stroke-width="2" x1="251.58026123046875" x2="245.140869140625" y1="135.0208740234375" y2="142.23297119140625" /><line stroke="rgb(0%,0%,0%)" stroke-width="2" x1="245.1410369873047" x2="245.140869140625" y1="166.56475830078125" y2="142.23297119140625" /><line stroke="rgb(0%,0%,0%)" stroke-width="2" x1="887.5968627929688" x2="887.5968627929688" y1="353.5771484375" y2="307.43524169921875" /><line stroke="rgb(0%,0%,0%)" stroke-width="2" x1="880.9577026367188" x2="887.5968627929688" y1="299.9993896484375" y2="307.43524169921875" /><line stroke="rgb(0%,0%,0%)" stroke-width="2" x1="901.4412231445312" x2="887.5968627929688" y1="291.932373046875" y2="307.43524169921875" /><line stroke="rgb(0%,0%,0%)" stroke-width="2" x1="270.12554931640625" x2="216.16407775878906" y1="284.26123046875" y2="344.69805908203125" /><line stroke="rgb(0%,0%,0%)" stroke-width="2" x1="196.78533935546875" x2="216.16407775878906" y1="322.993896484375" y2="344.69805908203125" /><line stroke="rgb(0%,0%,0%)" stroke-width="2" x1="216.15814208984375" x2="216.16407775878906" y1="387.76727294921875" y2="344.69805908203125" /><line stroke="rgb(0%,0%,0%)" stroke-width="2" x1="676.2767944335938" x2="632.33056640625" y1="347.54229736328125" y2="396.7620849609375" /><line stroke="rgb(0%,0%,0%)" stroke-width="2" x1="632.33056640625" x2="632.33056640625" y1="447.53857421875" y2="396.7620849609375" /><line stroke="rgb(0%,0%,0%)" stroke-width="2" x1="631.375" x2="632.33056640625" y1="395.67529296875" y2="396.7620849609375" /><line stroke="rgb(0%,0%,0%)" stroke-width="2" x1="676.2767944335938" x2="697.84375" y1="347.54229736328125" y2="371.697265625" /><line stroke="rgb(0%,0%,0%)" stroke-width="2" x1="697.84375" x2="697.84375" y1="422.48236083984375" y2="371.697265625" /><line stroke="rgb(0%,0%,0%)" stroke-width="2" x1="708.9266357421875" x2="697.84375" y1="359.28045654296875" y2="371.697265625" /><line stroke="rgb(0%,0%,0%)" stroke-width="2" x1="564.3214721679688" x2="564.3214721679688" y1="886.2914352416992" y2="678.8606567382812" /><line stroke="rgb(0%,0%,0%)" stroke-width="2" x1="584.9287109375" x2="564.3214721679688" y1="655.7805480957031" y2="678.8606567382812" /><line stroke="rgb(0%,0%,0%)" stroke-width="2" x1="562.4085083007812" x2="564.3214721679688" y1="676.7109680175781" y2="678.8606567382812" /><line stroke="rgb(0%,0%,0%)" stroke-width="2" x1="999.4924926757812" x2="914.6395263671875" y1="739.489501953125" y2="834.5247955322266" /><line stroke="rgb(0%,0%,0%)" stroke-width="2" x1="895.0126342773438" x2="914.6395263671875" y1="812.5426483154297" y2="834.5247955322266" /><line stroke="rgb(0%,0%,0%)" stroke-width="2" x1="914.6283569335938" x2="914.6395263671875" y1="889.8949432373047" y2="834.5247955322266" /><line stroke="rgb(0%,0%,0%)" stroke-width="2" x1="573.3175048828125" x2="609.1251831054688" y1="918.0865478515625" y2="958.1911468505859" /><line stroke="rgb(0%,0%,0%)" stroke-width="2" x1="609.1251831054688" x2="609.1251831054688" y1="985.2920322418213" y2="958.1911468505859" /><line stroke="rgb(0%,0%,0%)" stroke-width="2" x1="630.4132080078125" x2="609.1251831054688" y1="934.3429718017578" y2="958.1911468505859" /><line stroke="rgb(0%,0%,0%)" stroke-width="2" x1="250.7527313232422" x2="196.78533935546875" y1="206.83660888671875" y2="267.28009033203125" /><line stroke="rgb(0%,0%,0%)" stroke-width="2" x1="196.78533935546875" x2="196.78533935546875" y1="322.993896484375" y2="267.28009033203125" /><line stroke="rgb(0%,0%,0%)" stroke-width="2" x1="179.54139709472656" x2="196.78533935546875" y1="247.9527587890625" y2="267.28009033203125" /><line stroke="rgb(0%,0%,0%)" stroke-width="2" x1="104.83763122558594" x2="104.83763122558594" y1="471.22247314453125" y2="428.22979736328125" /><line stroke="rgb(0%,0%,0%)" stroke-width="2" x1="117.33311462402344" x2="104.83763122558594" y1="414.23486328125" y2="428.22979736328125" /><line stroke="rgb(0%,0%,0%)" stroke-width="2" x1="97.93881225585938" x2="104.83763122558594" y1="420.50103759765625" y2="428.22979736328125" /><line stroke="rgb(0%,0%,0%)" stroke-width="2" x1="697.84375" x2="653.9013671875" y1="422.48236083984375" y2="471.6978759765625" /><line stroke="rgb(0%,0%,0%)" stroke-width="2" x1="632.33056640625" x2="653.9013671875" y1="447.53857421875" y2="471.6978759765625" /><line stroke="rgb(0%,0%,0%)" stroke-width="2" x1="653.8975219726562" x2="653.9013671875" y1="499.0741882324219" y2="471.6978759765625" /><line stroke="rgb(0%,0%,0%)" stroke-width="2" x1="39.16869354248047" x2="99.73308563232422" y1="211.40789794921875" y2="279.239990234375" /><line stroke="rgb(0%,0%,0%)" stroke-width="2" x1="101.50133514404297" x2="99.73308563232422" y1="277.25958251953125" y2="279.239990234375" /><line stroke="rgb(0%,0%,0%)" stroke-width="2" x1="99.74317932128906" x2="99.73308563232422" y1="336.4736328125" y2="279.239990234375" /><line stroke="rgb(0%,0%,0%)" stroke-width="2" x1="928.590087890625" x2="909.5784912109375" y1="356.9024658203125" y2="378.1954345703125" /><line stroke="rgb(0%,0%,0%)" stroke-width="2" x1="909.5784912109375" x2="909.5784912109375" y1="382.604248046875" y2="378.1954345703125" /><line stroke="rgb(0%,0%,0%)" stroke-width="2" x1="887.5968627929688" x2="909.5784912109375" y1="353.5771484375" y2="378.1954345703125" /><line stroke="rgb(0%,0%,0%)" stroke-width="2" x1="760.2147216796875" x2="718.9007568359375" y1="643.6583862304688" y2="689.9300537109375" /><line stroke="rgb(0%,0%,0%)" stroke-width="2" x1="705.4421997070312" x2="718.9007568359375" y1="674.8564758300781" y2="689.9300537109375" /><line stroke="rgb(0%,0%,0%)" stroke-width="2" x1="718.8959350585938" x2="718.9007568359375" y1="747.5731964111328" y2="689.9300537109375" /><line stroke="rgb(0%,0%,0%)" stroke-width="2" x1="760.2147216796875" x2="833.5173950195312" y1="643.6583862304688" y2="725.7574157714844" /><line stroke="rgb(0%,0%,0%)" stroke-width="2" x1="842.1437377929688" x2="833.5173950195312" y1="716.0959167480469" y2="725.7574157714844" /><line stroke="rgb(0%,0%,0%)" stroke-width="2" x1="833.5285034179688" x2="833.5173950195312" y1="783.3953094482422" y2="725.7574157714844" /><line stroke="rgb(0%,0%,0%)" stroke-width="2" x1="320.3012390136719" x2="320.3012390136719" y1="331.13714599609375" y2="220.29718017578125" /><line stroke="rgb(0%,0%,0%)" stroke-width="2" x1="323.7627258300781" x2="320.3012390136719" y1="216.4202880859375" y2="220.29718017578125" /><line stroke="rgb(0%,0%,0%)" stroke-width="2" x1="301.1094970703125" x2="320.3012390136719" y1="198.8084716796875" y2="220.29718017578125" /><line stroke="rgb(0%,0%,0%)" stroke-width="2" x1="944.6838989257812" x2="893.1617431640625" y1="39.4000244140625" y2="97.1048583984375" /><line stroke="rgb(0%,0%,0%)" stroke-width="2" x1="893.1617431640625" x2="893.1617431640625" y1="147.06243896484375" y2="97.1048583984375" /><line stroke="rgb(0%,0%,0%)" stroke-width="2" x1="883.9335327148438" x2="893.1617431640625" y1="86.75299072265625" y2="97.1048583984375" /><line stroke="rgb(0%,0%,0%)" stroke-width="2" x1="944.6838989257812" x2="958.2422485351562" y1="39.4000244140625" y2="54.58538818359375" /><line stroke="rgb(0%,0%,0%)" stroke-width="2" x1="958.2422485351562" x2="958.2422485351562" y1="60.413330078125" y2="54.58538818359375" /><line stroke="rgb(0%,0%,0%)" stroke-width="2" x1="971.7542724609375" x2="958.2422485351562" y1="39.45184326171875" y2="54.58538818359375" /><line stroke="rgb(0%,0%,0%)" stroke-width="2" x1="924.4476318359375" x2="924.4476318359375" y1="338.86187744140625" y2="291.1767578125" /><line stroke="rgb(0%,0%,0%)" stroke-width="2" x1="937.2954711914062" x2="924.4476318359375" y1="276.78717041015625" y2="291.1767578125" /><line stroke="rgb(0%,0%,0%)" stroke-width="2" x1="906.6084594726562" x2="924.4476318359375" y1="271.1988525390625" y2="291.1767578125" /><line stroke="rgb(0%,0%,0%)" stroke-width="2" x1="145.26840209960938" x2="145.26840209960938" y1="385.51763916015625" y2="216.5916748046875" /><line stroke="rgb(0%,0%,0%)" stroke-width="2" x1="128.92657470703125" x2="145.26840209960938" y1="198.288818359375" y2="216.5916748046875" /><line stroke="rgb(0%,0%,0%)" stroke-width="2" x1="168.72451782226562" x2="145.26840209960938" y1="190.32354736328125" y2="216.5916748046875" /><line stroke="rgb(0%,0%,0%)" stroke-width="2" x1="529.2494506835938" x2="529.2494506835938" y1="960.8182678222656" y2="773.6166687011719" /><line stroke="rgb(0%,0%,0%)" stroke-width="2" x1="539.2238159179688" x2="529.2494506835938" y1="762.4453735351562" y2="773.6166687011719" /><line stroke="rgb(0%,0%,0%)" stroke-width="2" x1="505.6322937011719" x2="529.2494506835938" y1="747.1707000732422" y2="773.6166687011719" /><line stroke="rgb(0%,0%,0%)" stroke-width="2" x1="529.2494506835938" x2="564.233154296875" y1="960.8182678222656" y2="1000.0" /><line stroke="rgb(0%,0%,0%)" stroke-width="2" x1="604.2345581054688" x2="596.7879028320312" y1="991.6597652435303" y2="1000.0" /><line stroke="rgb(0%,0%,0%)" stroke-width="2" x1="370.18524169921875" x2="316.23248291015625" y1="429.43994140625" y2="489.8670349121094" /><line stroke="rgb(0%,0%,0%)" stroke-width="2" x1="292.34814453125" x2="316.23248291015625" y1="463.1165771484375" y2="489.8670349121094" /><line stroke="rgb(0%,0%,0%)" stroke-width="2" x1="316.227294921875" x2="316.23248291015625" y1="544.7653198242188" y2="489.8670349121094" /><line stroke="rgb(0%,0%,0%)" stroke-width="2" x1="283.1529541015625" x2="247.86822509765625" y1="850.7805480957031" y2="890.299446105957" /><line stroke="rgb(0%,0%,0%)" stroke-width="2" x1="247.86822509765625" x2="247.86822509765625" y1="953.6390953063965" y2="890.299446105957" /><line stroke="rgb(0%,0%,0%)" stroke-width="2" x1="232.0485382080078" x2="247.86822509765625" y1="872.5739135742188" y2="890.299446105957" /><line stroke="rgb(0%,0%,0%)" stroke-width="2" x1="283.1529541015625" x2="316.8020324707031" y1="850.7805480957031" y2="888.4675140380859" /><line stroke="rgb(0%,0%,0%)" stroke-width="2" x1="316.8020324707031" x2="316.8020324707031" y1="940.4052429199219" y2="888.4675140380859" /><line stroke="rgb(0%,0%,0%)" stroke-width="2" x1="325.1051025390625" x2="316.8020324707031" y1="879.1583557128906" y2="888.4675140380859" /><line stroke="rgb(0%,0%,0%)" stroke-width="2" x1="611.7923583984375" x2="545.7462158203125" y1="71.8480224609375" y2="145.8197021484375" /><line stroke="rgb(0%,0%,0%)" stroke-width="2" x1="545.7462158203125" x2="545.7462158203125" y1="156.501953125" y2="145.8197021484375" /><line stroke="rgb(0%,0%,0%)" stroke-width="2" x1="521.4237670898438" x2="545.7462158203125" y1="118.56256103515625" y2="145.8197021484375" /><line stroke="rgb(0%,0%,0%)" stroke-width="2" x1="682.4158935546875" x2="620.5364990234375" y1="695.4032287597656" y2="764.7081451416016" /><line stroke="rgb(0%,0%,0%)" stroke-width="2" x1="620.5364990234375" x2="620.5364990234375" y1="829.3717041015625" y2="764.7081451416016" /><line stroke="rgb(0%,0%,0%)" stroke-width="2" x1="600.9786376953125" x2="620.5364990234375" y1="742.787109375" y2="764.7081451416016" /><line stroke="rgb(0%,0%,0%)" stroke-width="2" x1="117.33311462402344" x2="128.44296264648438" y1="414.23486328125" y2="426.67791748046875" /><line stroke="rgb(0%,0%,0%)" stroke-width="2" x1="128.44296264648438" x2="128.44296264648438" y1="453.184814453125" y2="426.67791748046875" /><line stroke="rgb(0%,0%,0%)" stroke-width="2" x1="146.93524169921875" x2="128.44296264648438" y1="405.96942138671875" y2="426.67791748046875" /><line stroke="rgb(0%,0%,0%)" stroke-width="2" x1="392.9609375" x2="413.0379333496094" y1="85.16412353515625" y2="107.65032958984375" /><line stroke="rgb(0%,0%,0%)" stroke-width="2" x1="413.0379333496094" x2="413.0379333496094" y1="111.9061279296875" y2="107.65032958984375" /><line stroke="rgb(0%,0%,0%)" stroke-width="2" x1="441.0313720703125" x2="413.0379333496094" y1="76.30072021484375" y2="107.65032958984375" /><line stroke="rgb(0%,0%,0%)" stroke-width="2" x1="681.4177856445312" x2="681.4177856445312" y1="973.6104068756104" y2="921.7757339477539" /><line stroke="rgb(0%,0%,0%)" stroke-width="2" x1="671.0516967773438" x2="681.4177856445312" y1="910.1657180786133" y2="921.7757339477539" /><line stroke="rgb(0%,0%,0%)" stroke-width="2" x1="698.9589233398438" x2="681.4177856445312" y1="902.1324157714844" y2="921.7757339477539" /><line stroke="rgb(0%,0%,0%)" stroke-width="2" x1="681.4177856445312" x2="657.8556518554688" y1="973.6104068756104" y2="1000.0" /><line stroke="rgb(0%,0%,0%)" stroke-width="2" x1="937.2954711914062" x2="937.2954711914062" y1="276.78717041015625" y2="174.44482421875" /><line stroke="rgb(0%,0%,0%)" stroke-width="2" x1="947.4170532226562" x2="937.2954711914062" y1="163.108642578125" y2="174.44482421875" /><line stroke="rgb(0%,0%,0%)" stroke-width="2" x1="908.9188842773438" x2="937.2954711914062" y1="142.6700439453125" y2="174.44482421875" /><line stroke="rgb(0%,0%,0%)" stroke-width="2" x1="172.01922607421875" x2="172.01922607421875" y1="533.4664306640625" y2="478.988525390625" /><line stroke="rgb(0%,0%,0%)" stroke-width="2" x1="188.1046905517578" x2="172.01922607421875" y1="460.9727783203125" y2="478.988525390625" /><line stroke="rgb(0%,0%,0%)" stroke-width="2" x1="143.95294189453125" x2="172.01922607421875" y1="447.558837890625" y2="478.988525390625" /><line stroke="rgb(0%,0%,0%)" stroke-width="2" x1="946.3656005859375" x2="917.37255859375" y1="549.8994445800781" y2="582.3716430664062" /><line stroke="rgb(0%,0%,0%)" stroke-width="2" x1="917.37255859375" x2="917.37255859375" y1="632.6228637695312" y2="582.3716430664062" /><line stroke="rgb(0%,0%,0%)" stroke-width="2" x1="888.5736694335938" x2="917.37255859375" y1="550.1169128417969" y2="582.3716430664062" /><line stroke="rgb(0%,0%,0%)" stroke-width="2" x1="206.687744140625" x2="206.687744140625" y1="967.7072372436523" y2="789.2252960205078" /><line stroke="rgb(0%,0%,0%)" stroke-width="2" x1="219.38514709472656" x2="206.687744140625" y1="775.0042114257812" y2="789.2252960205078" /><line stroke="rgb(0%,0%,0%)" stroke-width="2" x1="177.85086059570312" x2="206.687744140625" y1="756.9342193603516" y2="789.2252960205078" /><line stroke="rgb(0%,0%,0%)" stroke-width="2" x1="206.687744140625" x2="184.69659423828125" y1="967.7072372436523" y2="992.3373250961304" /><line stroke="rgb(0%,0%,0%)" stroke-width="2" x1="184.69659423828125" x2="184.69659423828125" y1="995.7709703445435" y2="992.3373250961304" /><line stroke="rgb(0%,0%,0%)" stroke-width="2" x1="155.85971069335938" x2="184.69659423828125" y1="960.0426483154297" y2="992.3373250961304" /><line stroke="rgb(0%,0%,0%)" stroke-width="2" x1="435.0540771484375" x2="474.382568359375" y1="93.3525390625" y2="137.40045166015625" /><line stroke="rgb(0%,0%,0%)" stroke-width="2" x1="474.382568359375" x2="474.382568359375" y1="215.41107177734375" y2="137.40045166015625" /><line stroke="rgb(0%,0%,0%)" stroke-width="2" x1="488.5826416015625" x2="474.382568359375" y1="121.4866943359375" y2="137.40045166015625" /><line stroke="rgb(0%,0%,0%)" stroke-width="2" x1="678.828125" x2="678.828125" y1="629.6467895507812" y2="518.5938720703125" /><line stroke="rgb(0%,0%,0%)" stroke-width="2" x1="708.7675170898438" x2="678.828125" y1="485.061767578125" y2="518.5938720703125" /><line stroke="rgb(0%,0%,0%)" stroke-width="2" x1="668.0615234375" x2="678.828125" y1="506.5279541015625" y2="518.5938720703125" /><line stroke="rgb(0%,0%,0%)" stroke-width="2" x1="678.828125" x2="688.6669311523438" y1="629.6467895507812" y2="640.6662902832031" /><line stroke="rgb(0%,0%,0%)" stroke-width="2" x1="688.9205932617188" x2="688.6669311523438" y1="640.3822021484375" y2="640.6662902832031" /><line stroke="rgb(0%,0%,0%)" stroke-width="2" x1="688.6685791015625" x2="688.6669311523438" y1="690.7520751953125" y2="640.6662902832031" /><line stroke="rgb(0%,0%,0%)" stroke-width="2" x1="880.9577026367188" x2="839.0972290039062" y1="299.9993896484375" y2="346.88311767578125" /><line stroke="rgb(0%,0%,0%)" stroke-width="2" x1="839.0972290039062" x2="839.0972290039062" y1="375.341552734375" y2="346.88311767578125" /><line stroke="rgb(0%,0%,0%)" stroke-width="2" x1="822.90576171875" x2="839.0972290039062" y1="328.73883056640625" y2="346.88311767578125" /><line stroke="rgb(0%,0%,0%)" stroke-width="2" x1="97.93881225585938" x2="97.93881225585938" y1="420.50103759765625" y2="338.4993896484375" /><line stroke="rgb(0%,0%,0%)" stroke-width="2" x1="83.40980529785156" x2="97.93881225585938" y1="322.2269287109375" y2="338.4993896484375" /><line stroke="rgb(0%,0%,0%)" stroke-width="2" x1="99.74317932128906" x2="97.93881225585938" y1="336.4736328125" y2="338.4993896484375" /><line stroke="rgb(0%,0%,0%)" stroke-width="2" x1="273.0067138671875" x2="286.3154602050781" y1="241.46990966796875" y2="256.37567138671875" /><line stroke="rgb(0%,0%,0%)" stroke-width="2" x1="299.2822265625" x2="286.3154602050781" y1="241.8529052734375" y2="256.37567138671875" /><line stroke="rgb(0%,0%,0%)" stroke-width="2" x1="286.3155212402344" x2="286.3154602050781" y1="335.13958740234375" y2="256.37567138671875" /><line stroke="rgb(0%,0%,0%)" stroke-width="2" x1="84.95142364501953" x2="84.95142364501953" y1="874.3125076293945" y2="639.5190734863281" /><line stroke="rgb(0%,0%,0%)" stroke-width="2" x1="53.61431884765625" x2="84.95142364501953" y1="604.4215087890625" y2="639.5190734863281" /><line stroke="rgb(0%,0%,0%)" stroke-width="2" x1="105.32331085205078" x2="84.95142364501953" y1="616.6983337402344" y2="639.5190734863281" /><line stroke="rgb(0%,0%,0%)" stroke-width="2" x1="664.3082275390625" x2="664.3082275390625" y1="595.6514892578125" y2="510.73419189453125" /><line stroke="rgb(0%,0%,0%)" stroke-width="2" x1="653.8975219726562" x2="664.3082275390625" y1="499.0741882324219" y2="510.73419189453125" /><line stroke="rgb(0%,0%,0%)" stroke-width="2" x1="668.0615234375" x2="664.3082275390625" y1="506.5279541015625" y2="510.73419189453125" /><line stroke="rgb(0%,0%,0%)" stroke-width="2" x1="782.0899047851562" x2="747.4869995117188" y1="344.289306640625" y2="383.0445556640625" /><line stroke="rgb(0%,0%,0%)" stroke-width="2" x1="747.4869995117188" x2="747.4869995117188" y1="396.13873291015625" y2="383.0445556640625" /><line stroke="rgb(0%,0%,0%)" stroke-width="2" x1="728.861328125" x2="747.4869995117188" y1="362.17767333984375" y2="383.0445556640625" /><line stroke="rgb(0%,0%,0%)" stroke-width="2" x1="188.1046905517578" x2="188.1046905517578" y1="460.9727783203125" y2="415.880859375" /><line stroke="rgb(0%,0%,0%)" stroke-width="2" x1="200.557861328125" x2="188.1046905517578" y1="401.93328857421875" y2="415.880859375" /><line stroke="rgb(0%,0%,0%)" stroke-width="2" x1="154.7958526611328" x2="188.1046905517578" y1="378.58294677734375" y2="415.880859375" /><line stroke="rgb(0%,0%,0%)" stroke-width="2" x1="981.463623046875" x2="947.0618286132812" y1="627.3466491699219" y2="665.8766479492188" /><line stroke="rgb(0%,0%,0%)" stroke-width="2" x1="947.0618286132812" x2="947.0618286132812" y1="665.9020080566406" y2="665.8766479492188" /><line stroke="rgb(0%,0%,0%)" stroke-width="2" x1="917.37255859375" x2="947.0618286132812" y1="632.6228637695312" y2="665.8766479492188" /><line stroke="rgb(0%,0%,0%)" stroke-width="2" x1="247.86822509765625" x2="289.26190185546875" y1="953.6390953063965" y2="1000.0" /><line stroke="rgb(0%,0%,0%)" stroke-width="2" x1="630.4132080078125" x2="630.4132080078125" y1="934.3429718017578" y2="860.0811614990234" /><line stroke="rgb(0%,0%,0%)" stroke-width="2" x1="653.3709716796875" x2="630.4132080078125" y1="834.3684692382812" y2="860.0811614990234" /><line stroke="rgb(0%,0%,0%)" stroke-width="2" x1="625.4312133789062" x2="630.4132080078125" y1="854.494384765625" y2="860.0811614990234" /><line stroke="rgb(0%,0%,0%)" stroke-width="2" x1="236.85560607910156" x2="236.85560607910156" y1="542.1536254882812" y2="442.57403564453125" /><line stroke="rgb(0%,0%,0%)" stroke-width="2" x1="239.9979248046875" x2="236.85560607910156" y1="439.05462646484375" y2="442.57403564453125" /><line stroke="rgb(0%,0%,0%)" stroke-width="2" x1="200.557861328125" x2="236.85560607910156" y1="401.93328857421875" y2="442.57403564453125" /><line stroke="rgb(0%,0%,0%)" stroke-width="2" x1="236.85560607910156" x2="208.31695556640625" y1="542.1536254882812" y2="574.1169128417969" /><line stroke="rgb(0%,0%,0%)" stroke-width="2" x1="208.31695556640625" x2="208.31695556640625" y1="575.3399353027344" y2="574.1169128417969" /><line stroke="rgb(0%,0%,0%)" stroke-width="2" x1="172.01922607421875" x2="208.31695556640625" y1="533.4664306640625" y2="574.1169128417969" /><line stroke="rgb(0%,0%,0%)" stroke-width="2" x1="591.9385375976562" x2="533.0213623046875" y1="114.2127685546875" y2="180.199951171875" /><line stroke="rgb(0%,0%,0%)" stroke-width="2" x1="532.8016357421875" x2="533.0213623046875" y1="179.953857421875" y2="180.199951171875" /><line stroke="rgb(0%,0%,0%)" stroke-width="2" x1="533.0112915039062" x2="533.0213623046875" y1="277.0250244140625" y2="180.199951171875" /><line stroke="rgb(0%,0%,0%)" stroke-width="2" x1="591.9385375976562" x2="653.6539306640625" y1="114.2127685546875" y2="183.333984375" /><line stroke="rgb(0%,0%,0%)" stroke-width="2" x1="684.6395263671875" x2="653.6539306640625" y1="148.630126953125" y2="183.333984375" /><line stroke="rgb(0%,0%,0%)" stroke-width="2" x1="653.6591796875" x2="653.6539306640625" y1="280.152587890625" y2="183.333984375" /><line stroke="rgb(0%,0%,0%)" stroke-width="2" x1="917.5667724609375" x2="888.5769653320312" y1="420.22296142578125" y2="452.6915283203125" /><line stroke="rgb(0%,0%,0%)" stroke-width="2" x1="878.8350219726562" x2="888.5769653320312" y1="441.780517578125" y2="452.6915283203125" /><line stroke="rgb(0%,0%,0%)" stroke-width="2" x1="888.5736694335938" x2="888.5769653320312" y1="550.1169128417969" y2="452.6915283203125" /><line stroke="rgb(0%,0%,0%)" stroke-width="2" x1="917.5667724609375" x2="946.3607177734375" y1="420.22296142578125" y2="452.47216796875" /><line stroke="rgb(0%,0%,0%)" stroke-width="2" x1="946.708984375" x2="946.3607177734375" y1="452.0821533203125" y2="452.47216796875" /><line stroke="rgb(0%,0%,0%)" stroke-width="2" x1="946.3656005859375" x2="946.3607177734375" y1="549.8994445800781" y2="452.47216796875" /><line stroke="rgb(0%,0%,0%)" stroke-width="2" x1="744.6670532226562" x2="744.6670532226562" y1="473.0830078125" y2="399.29705810546875" /><line stroke="rgb(0%,0%,0%)" stroke-width="2" x1="747.4869995117188" x2="744.6670532226562" y1="396.13873291015625" y2="399.29705810546875" /><line stroke="rgb(0%,0%,0%)" stroke-width="2" x1="708.9266357421875" x2="744.6670532226562" y1="359.28045654296875" y2="399.29705810546875" /><line stroke="rgb(0%,0%,0%)" stroke-width="2" x1="671.0516967773438" x2="671.0516967773438" y1="910.1657180786133" y2="854.1708831787109" /><line stroke="rgb(0%,0%,0%)" stroke-width="2" x1="653.3709716796875" x2="671.0516967773438" y1="834.3684692382812" y2="854.1708831787109" /><line stroke="rgb(0%,0%,0%)" stroke-width="2" x1="707.3493041992188" x2="671.0516967773438" y1="813.5247039794922" y2="854.1708831787109" /><line stroke="rgb(0%,0%,0%)" stroke-width="2" x1="316.8020324707031" x2="370.0116271972656" y1="940.4052429199219" y2="1000.0" /><line stroke="rgb(0%,0%,0%)" stroke-width="2" x1="423.29888916015625" x2="400.5480041503906" y1="974.5190238952637" y2="1000.0" /><line stroke="rgb(0%,0%,0%)" stroke-width="2" x1="755.3761596679688" x2="813.1619873046875" y1="517.9527282714844" y2="582.6728515625" /><line stroke="rgb(0%,0%,0%)" stroke-width="2" x1="813.1619873046875" x2="813.1619873046875" y1="663.0427856445312" y2="582.6728515625" /><line stroke="rgb(0%,0%,0%)" stroke-width="2" x1="846.82568359375" x2="813.1619873046875" y1="544.9602661132812" y2="582.6728515625" /><line stroke="rgb(0%,0%,0%)" stroke-width="2" x1="488.8520202636719" x2="488.8520202636719" y1="610.1925048828125" y2="483.1383056640625" /><line stroke="rgb(0%,0%,0%)" stroke-width="2" x1="508.10302734375" x2="488.8520202636719" y1="461.5771484375" y2="483.1383056640625" /><line stroke="rgb(0%,0%,0%)" stroke-width="2" x1="463.2939147949219" x2="488.8520202636719" y1="454.515625" y2="483.1383056640625" /><line stroke="rgb(0%,0%,0%)" stroke-width="2" x1="461.0810546875" x2="461.0810546875" y1="362.2286376953125" y2="324.79351806640625" /><line stroke="rgb(0%,0%,0%)" stroke-width="2" x1="448.2022399902344" x2="461.0810546875" y1="310.3692626953125" y2="324.79351806640625" /><line stroke="rgb(0%,0%,0%)" stroke-width="2" x1="500.00885009765625" x2="461.0810546875" y1="281.2044677734375" y2="324.79351806640625" /><line stroke="rgb(0%,0%,0%)" stroke-width="2" x1="908.9188842773438" x2="890.9065551757812" y1="142.6700439453125" y2="162.84381103515625" /><line stroke="rgb(0%,0%,0%)" stroke-width="2" x1="889.197998046875" x2="890.9065551757812" y1="160.93023681640625" y2="162.84381103515625" /><line stroke="rgb(0%,0%,0%)" stroke-width="2" x1="890.9037475585938" x2="890.9065551757812" y1="265.186279296875" y2="162.84381103515625" /><line stroke="rgb(0%,0%,0%)" stroke-width="2" x1="909.5784912109375" x2="946.7041625976562" y1="382.604248046875" y2="424.18499755859375" /><line stroke="rgb(0%,0%,0%)" stroke-width="2" x1="955.9248046875" x2="946.7041625976562" y1="413.85791015625" y2="424.18499755859375" /><line stroke="rgb(0%,0%,0%)" stroke-width="2" x1="946.708984375" x2="946.7041625976562" y1="452.0821533203125" y2="424.18499755859375" /><line stroke="rgb(0%,0%,0%)" stroke-width="2" x1="61.72149658203125" x2="61.72149658203125" y1="423.0595703125" y2="346.517822265625" /><line stroke="rgb(0%,0%,0%)" stroke-width="2" x1="83.40980529785156" x2="61.72149658203125" y1="322.2269287109375" y2="346.517822265625" /><line stroke="rgb(0%,0%,0%)" stroke-width="2" x1="21.48554801940918" x2="61.72149658203125" y1="301.460693359375" y2="346.517822265625" /><line stroke="rgb(0%,0%,0%)" stroke-width="2" x1="448.2022399902344" x2="448.2022399902344" y1="310.3692626953125" y2="244.72613525390625" /><line stroke="rgb(0%,0%,0%)" stroke-width="2" x1="440.03009033203125" x2="448.2022399902344" y1="235.57330322265625" y2="244.72613525390625" /><line stroke="rgb(0%,0%,0%)" stroke-width="2" x1="474.382568359375" x2="448.2022399902344" y1="215.41107177734375" y2="244.72613525390625" /><line stroke="rgb(0%,0%,0%)" stroke-width="2" x1="778.1005249023438" x2="728.861328125" y1="198.9530029296875" y2="254.10089111328125" /><line stroke="rgb(0%,0%,0%)" stroke-width="2" x1="728.861328125" x2="728.861328125" y1="362.17767333984375" y2="254.10089111328125" /><line stroke="rgb(0%,0%,0%)" stroke-width="2" x1="718.8402709960938" x2="728.861328125" y1="242.8621826171875" y2="254.10089111328125" /><line stroke="rgb(0%,0%,0%)" stroke-width="2" x1="838.451416015625" x2="838.451416015625" y1="426.056640625" y2="376.06488037109375" /><line stroke="rgb(0%,0%,0%)" stroke-width="2" x1="839.0972290039062" x2="838.451416015625" y1="375.341552734375" y2="376.06488037109375" /><line stroke="rgb(0%,0%,0%)" stroke-width="2" x1="801.3782958984375" x2="838.451416015625" y1="334.55694580078125" y2="376.06488037109375" /><line stroke="rgb(0%,0%,0%)" stroke-width="2" x1="838.451416015625" x2="865.6627807617188" y1="426.056640625" y2="456.53338623046875" /><line stroke="rgb(0%,0%,0%)" stroke-width="2" x1="878.8350219726562" x2="865.6627807617188" y1="441.780517578125" y2="456.53338623046875" /><line stroke="rgb(0%,0%,0%)" stroke-width="2" x1="865.6652221679688" x2="865.6627807617188" y1="470.71923828125" y2="456.53338623046875" /><line stroke="rgb(0%,0%,0%)" stroke-width="2" x1="842.008544921875" x2="842.008544921875" y1="200.29150390625" y2="153.19476318359375" /><line stroke="rgb(0%,0%,0%)" stroke-width="2" x1="858.74853515625" x2="842.008544921875" y1="134.44598388671875" y2="153.19476318359375" /><line stroke="rgb(0%,0%,0%)" stroke-width="2" x1="809.7176513671875" x2="842.008544921875" y1="117.03485107421875" y2="153.19476318359375" /><line stroke="rgb(0%,0%,0%)" stroke-width="2" x1="842.008544921875" x2="810.6522827148438" y1="200.29150390625" y2="235.4105224609375" /><line stroke="rgb(0%,0%,0%)" stroke-width="2" x1="810.6522827148438" x2="810.6522827148438" y1="302.88519287109375" y2="235.4105224609375" /><line stroke="rgb(0%,0%,0%)" stroke-width="2" x1="778.1005249023438" x2="810.6522827148438" y1="198.9530029296875" y2="235.4105224609375" /><line stroke="rgb(0%,0%,0%)" stroke-width="2" x1="743.4608154296875" x2="743.4608154296875" y1="1000.0" y2="951.9650955200195" /><line stroke="rgb(0%,0%,0%)" stroke-width="2" x1="763.4434204101562" x2="743.4608154296875" y1="929.5845794677734" y2="951.9650955200195" /><line stroke="rgb(0%,0%,0%)" stroke-width="2" x1="698.9589233398438" x2="743.4608154296875" y1="902.1324157714844" y2="951.9650955200195" /><line stroke="rgb(0%,0%,0%)" stroke-width="2" x1="672.1854858398438" x2="724.7177734375" y1="117.596923828125" y2="176.43310546875" /><line stroke="rgb(0%,0%,0%)" stroke-width="2" x1="724.7177734375" x2="724.7177734375" y1="180.34124755859375" y2="176.43310546875" /><line stroke="rgb(0%,0%,0%)" stroke-width="2" x1="769.8203125" x2="724.7177734375" y1="125.91534423828125" y2="176.43310546875" /><line stroke="rgb(0%,0%,0%)" stroke-width="2" x1="738.2050170898438" x2="738.2050170898438" y1="525.9897766113281" y2="499.9494323730469" /><line stroke="rgb(0%,0%,0%)" stroke-width="2" x1="729.0584106445312" x2="738.2050170898438" y1="489.7052307128906" y2="499.9494323730469" /><line stroke="rgb(0%,0%,0%)" stroke-width="2" x1="751.4696655273438" x2="738.2050170898438" y1="485.09454345703125" y2="499.9494323730469" /><line stroke="rgb(0%,0%,0%)" stroke-width="2" x1="393.70379638671875" x2="393.70379638671875" y1="437.229248046875" y2="401.6092529296875" /><line stroke="rgb(0%,0%,0%)" stroke-width="2" x1="405.6110534667969" x2="393.70379638671875" y1="388.27313232421875" y2="401.6092529296875" /><line stroke="rgb(0%,0%,0%)" stroke-width="2" x1="373.04443359375" x2="393.70379638671875" y1="378.47412109375" y2="401.6092529296875" /><line stroke="rgb(0%,0%,0%)" stroke-width="2" x1="413.0379333496094" x2="415.76031494140625" y1="111.9061279296875" y2="114.9552001953125" /><line stroke="rgb(0%,0%,0%)" stroke-width="2" x1="415.76031494140625" x2="415.76031494140625" y1="119.182861328125" y2="114.9552001953125" /><line stroke="rgb(0%,0%,0%)" stroke-width="2" x1="435.0540771484375" x2="415.76031494140625" y1="93.3525390625" y2="114.9552001953125" /><line stroke="rgb(0%,0%,0%)" stroke-width="2" x1="342.9098205566406" x2="323.7627258300781" y1="182.3359375" y2="203.78070068359375" /><line stroke="rgb(0%,0%,0%)" stroke-width="2" x1="323.7627258300781" x2="323.7627258300781" y1="216.4202880859375" y2="203.78070068359375" /><line stroke="rgb(0%,0%,0%)" stroke-width="2" x1="293.78192138671875" x2="323.7627258300781" y1="170.20635986328125" y2="203.78070068359375" /><line stroke="rgb(0%,0%,0%)" stroke-width="2" x1="178.5069122314453" x2="115.00776672363281" y1="556.4258728027344" y2="627.544921875" /><line stroke="rgb(0%,0%,0%)" stroke-width="2" x1="105.32331085205078" x2="115.00776672363281" y1="616.6983337402344" y2="627.544921875" /><line stroke="rgb(0%,0%,0%)" stroke-width="2" x1="114.9985122680664" x2="115.00776672363281" y1="751.5448455810547" y2="627.544921875" /><line stroke="rgb(0%,0%,0%)" stroke-width="2" x1="405.6110534667969" x2="405.6110534667969" y1="388.27313232421875" y2="274.12261962890625" /><line stroke="rgb(0%,0%,0%)" stroke-width="2" x1="440.03009033203125" x2="405.6110534667969" y1="235.57330322265625" y2="274.12261962890625" /><line stroke="rgb(0%,0%,0%)" stroke-width="2" x1="374.4547119140625" x2="405.6110534667969" y1="239.22625732421875" y2="274.12261962890625" /><line stroke="rgb(0%,0%,0%)" stroke-width="2" x1="329.32025146484375" x2="329.32025146484375" y1="865.5422210693359" y2="677.3006591796875" /><line stroke="rgb(0%,0%,0%)" stroke-width="2" x1="354.81585693359375" x2="329.32025146484375" y1="648.7455749511719" y2="677.3006591796875" /><line stroke="rgb(0%,0%,0%)" stroke-width="2" x1="280.5331726074219" x2="329.32025146484375" y1="622.6680908203125" y2="677.3006591796875" /><line stroke="rgb(0%,0%,0%)" stroke-width="2" x1="329.32025146484375" x2="325.1051025390625" y1="865.5422210693359" y2="870.26318359375" /><line stroke="rgb(0%,0%,0%)" stroke-width="2" x1="325.1051025390625" x2="325.1051025390625" y1="879.1583557128906" y2="870.26318359375" /><line stroke="rgb(0%,0%,0%)" stroke-width="2" x1="276.3180236816406" x2="325.1051025390625" y1="815.6388092041016" y2="870.26318359375" /><line stroke="rgb(0%,0%,0%)" stroke-width="2" x1="138.40567016601562" x2="173.6419677734375" y1="68.6326904296875" y2="108.09735107421875" /><line stroke="rgb(0%,0%,0%)" stroke-width="2" x1="173.6419677734375" x2="173.6419677734375" y1="177.67205810546875" y2="108.09735107421875" /><line stroke="rgb(0%,0%,0%)" stroke-width="2" x1="223.05938720703125" x2="173.6419677734375" y1="52.75531005859375" y2="108.09735107421875" /><line stroke="rgb(0%,0%,0%)" stroke-width="2" x1="184.69659423828125" x2="180.92066955566406" y1="995.7709703445435" y2="1000.0" /><line stroke="rgb(0%,0%,0%)" stroke-width="2" x1="121.05777740478516" x2="160.20359802246094" y1="956.156681060791" y2="1000.0" /><line stroke="rgb(0%,0%,0%)" stroke-width="2" x1="806.0172729492188" x2="806.0172729492188" y1="947.6268272399902" y2="814.205810546875" /><line stroke="rgb(0%,0%,0%)" stroke-width="2" x1="784.1043090820312" x2="806.0172729492188" y1="789.6632843017578" y2="814.205810546875" /><line stroke="rgb(0%,0%,0%)" stroke-width="2" x1="833.5285034179688" x2="806.0172729492188" y1="783.3953094482422" y2="814.205810546875" /><line stroke="rgb(0%,0%,0%)" stroke-width="2" x1="317.8749694824219" x2="317.8749694824219" y1="567.6833801269531" y2="546.6107177734375" /><line stroke="rgb(0%,0%,0%)" stroke-width="2" x1="316.227294921875" x2="317.8749694824219" y1="544.7653198242188" y2="546.6107177734375" /><line stroke="rgb(0%,0%,0%)" stroke-width="2" x1="368.2732238769531" x2="317.8749694824219" y1="490.18341064453125" y2="546.6107177734375" /><line stroke="rgb(0%,0%,0%)" stroke-width="2" x1="317.8749694824219" x2="379.4015197753906" y1="567.6833801269531" y2="636.5931091308594" /><line stroke="rgb(0%,0%,0%)" stroke-width="2" x1="379.4015197753906" x2="379.4015197753906" y1="640.574462890625" y2="636.5931091308594" /><line stroke="rgb(0%,0%,0%)" stroke-width="2" x1="429.7997741699219" x2="379.4015197753906" y1="580.1427612304688" y2="636.5931091308594" /><line stroke="rgb(0%,0%,0%)" stroke-width="2" x1="224.3997802734375" x2="224.3997802734375" y1="880.8511810302734" y2="860.1965026855469" /><line stroke="rgb(0%,0%,0%)" stroke-width="2" x1="219.82725524902344" x2="224.3997802734375" y1="855.0752716064453" y2="860.1965026855469" /><line stroke="rgb(0%,0%,0%)" stroke-width="2" x1="275.5084228515625" x2="224.3997802734375" y1="802.9727325439453" y2="860.1965026855469" /><line stroke="rgb(0%,0%,0%)" stroke-width="2" x1="269.009765625" x2="239.9979248046875" y1="381.9765625" y2="414.4698486328125" /><line stroke="rgb(0%,0%,0%)" stroke-width="2" x1="239.9979248046875" x2="239.9979248046875" y1="439.05462646484375" y2="414.4698486328125" /><line stroke="rgb(0%,0%,0%)" stroke-width="2" x1="216.15814208984375" x2="239.9979248046875" y1="387.76727294921875" y2="414.4698486328125" /><line stroke="rgb(0%,0%,0%)" stroke-width="2" x1="269.009765625" x2="288.8310852050781" y1="381.9765625" y2="404.17645263671875" /><line stroke="rgb(0%,0%,0%)" stroke-width="2" x1="288.8310852050781" x2="288.8310852050781" y1="411.41424560546875" y2="404.17645263671875" /><line stroke="rgb(0%,0%,0%)" stroke-width="2" x1="316.6678161621094" x2="288.8310852050781" y1="373.00238037109375" y2="404.17645263671875" /><line stroke="rgb(0%,0%,0%)" stroke-width="2" x1="578.3717651367188" x2="578.3717651367188" y1="618.1221313476562" y2="455.02020263671875" /><line stroke="rgb(0%,0%,0%)" stroke-width="2" x1="573.7872924804688" x2="578.3717651367188" y1="449.8856201171875" y2="455.02020263671875" /><line stroke="rgb(0%,0%,0%)" stroke-width="2" x1="631.375" x2="578.3717651367188" y1="395.67529296875" y2="455.02020263671875" /><line stroke="rgb(0%,0%,0%)" stroke-width="2" x1="578.3717651367188" x2="611.3050537109375" y1="618.1221313476562" y2="655.0074157714844" /><line stroke="rgb(0%,0%,0%)" stroke-width="2" x1="611.3050537109375" x2="611.3050537109375" y1="660.6642150878906" y2="655.0074157714844" /><line stroke="rgb(0%,0%,0%)" stroke-width="2" x1="664.3082275390625" x2="611.3050537109375" y1="595.6514892578125" y2="655.0074157714844" /><line stroke="rgb(0%,0%,0%)" stroke-width="2" x1="219.82725524902344" x2="219.82725524902344" y1="855.0752716064453" y2="775.4993743896484" /><line stroke="rgb(0%,0%,0%)" stroke-width="2" x1="219.38514709472656" x2="219.82725524902344" y1="775.0042114257812" y2="775.4993743896484" /><line stroke="rgb(0%,0%,0%)" stroke-width="2" x1="241.61886596679688" x2="219.82725524902344" y1="751.1009826660156" y2="775.4993743896484" /><line stroke="rgb(0%,0%,0%)" stroke-width="2" x1="763.4434204101562" x2="763.4434204101562" y1="929.5845794677734" y2="853.9409790039062" /><line stroke="rgb(0%,0%,0%)" stroke-width="2" x1="764.84130859375" x2="763.4434204101562" y1="852.3753509521484" y2="853.9409790039062" /><line stroke="rgb(0%,0%,0%)" stroke-width="2" x1="708.575439453125" x2="763.4434204101562" y1="792.5094604492188" y2="853.9409790039062" /><line stroke="rgb(0%,0%,0%)" stroke-width="2" x1="357.55548095703125" x2="374.4541931152344" y1="190.929443359375" y2="209.85601806640625" /><line stroke="rgb(0%,0%,0%)" stroke-width="2" x1="388.25823974609375" x2="374.4541931152344" y1="194.39544677734375" y2="209.85601806640625" /><line stroke="rgb(0%,0%,0%)" stroke-width="2" x1="374.4547119140625" x2="374.4541931152344" y1="239.22625732421875" y2="209.85601806640625" /><line stroke="rgb(0%,0%,0%)" stroke-width="2" x1="893.1617431640625" x2="889.197998046875" y1="147.06243896484375" y2="151.5018310546875" /><line stroke="rgb(0%,0%,0%)" stroke-width="2" x1="889.197998046875" x2="889.197998046875" y1="160.93023681640625" y2="151.5018310546875" /><line stroke="rgb(0%,0%,0%)" stroke-width="2" x1="878.610595703125" x2="889.197998046875" y1="139.64642333984375" y2="151.5018310546875" /><line stroke="rgb(0%,0%,0%)" stroke-width="2" x1="59.65911102294922" x2="101.50133514404297" y1="182.1473388671875" y2="229.0106201171875" /><line stroke="rgb(0%,0%,0%)" stroke-width="2" x1="101.50133514404297" x2="101.50133514404297" y1="277.25958251953125" y2="229.0106201171875" /><line stroke="rgb(0%,0%,0%)" stroke-width="2" x1="128.92657470703125" x2="101.50133514404297" y1="198.288818359375" y2="229.0106201171875" /><line stroke="rgb(0%,0%,0%)" stroke-width="2" x1="173.6419677734375" x2="186.02200317382812" y1="177.67205810546875" y2="191.5377197265625" /><line stroke="rgb(0%,0%,0%)" stroke-width="2" x1="186.02200317382812" x2="186.02200317382812" y1="195.17852783203125" y2="191.5377197265625" /><line stroke="rgb(0%,0%,0%)" stroke-width="2" x1="237.59918212890625" x2="186.02200317382812" y1="133.78631591796875" y2="191.5377197265625" /><line stroke="rgb(0%,0%,0%)" stroke-width="2" x1="533.0112915039062" x2="594.7314453125" y1="277.0250244140625" y2="346.151611328125" /><line stroke="rgb(0%,0%,0%)" stroke-width="2" x1="653.6591796875" x2="594.7314453125" y1="280.152587890625" y2="346.151611328125" /><line stroke="rgb(0%,0%,0%)" stroke-width="2" x1="594.73193359375" x2="594.7314453125" y1="384.005126953125" y2="346.151611328125" /><line stroke="rgb(0%,0%,0%)" stroke-width="2" x1="463.2939147949219" x2="436.2186279296875" y1="454.515625" y2="484.8399658203125" /><line stroke="rgb(0%,0%,0%)" stroke-width="2" x1="436.2186279296875" x2="436.2186279296875" y1="551.8827819824219" y2="484.8399658203125" /><line stroke="rgb(0%,0%,0%)" stroke-width="2" x1="393.70379638671875" x2="436.2186279296875" y1="437.229248046875" y2="484.8399658203125" /><line stroke="rgb(0%,0%,0%)" stroke-width="2" x1="241.61886596679688" x2="241.61886596679688" y1="751.1009826660156" y2="654.1978759765625" /><line stroke="rgb(0%,0%,0%)" stroke-width="2" x1="274.27032470703125" x2="241.61886596679688" y1="617.6282348632812" y2="654.1978759765625" /><line stroke="rgb(0%,0%,0%)" stroke-width="2" x1="206.52467346191406" x2="241.61886596679688" y1="614.893310546875" y2="654.1978759765625" /><line stroke="rgb(0%,0%,0%)" stroke-width="2" x1="114.9985122680664" x2="128.15687561035156" y1="751.5448455810547" y2="766.2822113037109" /><line stroke="rgb(0%,0%,0%)" stroke-width="2" x1="135.1861572265625" x2="128.15687561035156" y1="758.4094085693359" y2="766.2822113037109" /><line stroke="rgb(0%,0%,0%)" stroke-width="2" x1="128.15792846679688" x2="128.15687561035156" y1="906.9140853881836" y2="766.2822113037109" /><line stroke="rgb(0%,0%,0%)" stroke-width="2" x1="208.31695556640625" x2="201.85862731933594" y1="575.3399353027344" y2="582.5732727050781" /><line stroke="rgb(0%,0%,0%)" stroke-width="2" x1="201.85862731933594" x2="201.85862731933594" y1="592.16162109375" y2="582.5732727050781" /><line stroke="rgb(0%,0%,0%)" stroke-width="2" x1="178.5069122314453" x2="201.85862731933594" y1="556.4258728027344" y2="582.5732727050781" /><line stroke="rgb(0%,0%,0%)" stroke-width="2" x1="168.72451782226562" x2="179.54066467285156" y1="190.32354736328125" y2="202.4376220703125" /><line stroke="rgb(0%,0%,0%)" stroke-width="2" x1="186.02200317382812" x2="179.54066467285156" y1="195.17852783203125" y2="202.4376220703125" /><line stroke="rgb(0%,0%,0%)" stroke-width="2" x1="179.54139709472656" x2="179.54066467285156" y1="247.9527587890625" y2="202.4376220703125" /><line stroke="rgb(0%,0%,0%)" stroke-width="2" x1="813.1619873046875" x2="842.1437377929688" y1="663.0427856445312" y2="695.5023498535156" /><line stroke="rgb(0%,0%,0%)" stroke-width="2" x1="842.1437377929688" x2="842.1437377929688" y1="716.0959167480469" y2="695.5023498535156" /><line stroke="rgb(0%,0%,0%)" stroke-width="2" x1="855.767578125" x2="842.1437377929688" y1="680.2376708984375" y2="695.5023498535156" /><line stroke="rgb(0%,0%,0%)" stroke-width="2" x1="527.5387573242188" x2="508.10302734375" y1="393.1146240234375" y2="414.88262939453125" /><line stroke="rgb(0%,0%,0%)" stroke-width="2" x1="508.10302734375" x2="508.10302734375" y1="461.5771484375" y2="414.88262939453125" /><line stroke="rgb(0%,0%,0%)" stroke-width="2" x1="461.0810546875" x2="508.10302734375" y1="362.2286376953125" y2="414.88262939453125" /><line stroke="rgb(0%,0%,0%)" stroke-width="2" x1="527.5387573242188" x2="573.7872924804688" y1="393.1146240234375" y2="444.9129638671875" /><line stroke="rgb(0%,0%,0%)" stroke-width="2" x1="573.7872924804688" x2="573.7872924804688" y1="449.8856201171875" y2="444.9129638671875" /><line stroke="rgb(0%,0%,0%)" stroke-width="2" x1="593.2793579101562" x2="573.7872924804688" y1="423.071533203125" y2="444.9129638671875" /><line stroke="rgb(0%,0%,0%)" stroke-width="2" x1="684.6395263671875" x2="718.8353881835938" y1="148.630126953125" y2="186.92950439453125" /><line stroke="rgb(0%,0%,0%)" stroke-width="2" x1="724.7177734375" x2="718.8353881835938" y1="180.34124755859375" y2="186.92950439453125" /><line stroke="rgb(0%,0%,0%)" stroke-width="2" x1="718.8402709960938" x2="718.8353881835938" y1="242.8621826171875" y2="186.92950439453125" /><line stroke="rgb(0%,0%,0%)" stroke-width="2" x1="947.0618286132812" x2="895.0126342773438" y1="665.9020080566406" y2="724.1971130371094" /><line stroke="rgb(0%,0%,0%)" stroke-width="2" x1="895.0126342773438" x2="895.0126342773438" y1="812.5426483154297" y2="724.1971130371094" /><line stroke="rgb(0%,0%,0%)" stroke-width="2" x1="855.767578125" x2="895.0126342773438" y1="680.2376708984375" y2="724.1971130371094" /><line stroke="rgb(0%,0%,0%)" stroke-width="2" x1="177.85086059570312" x2="155.8599395751953" y1="756.9342193603516" y2="781.5640411376953" /><line stroke="rgb(0%,0%,0%)" stroke-width="2" x1="135.1861572265625" x2="155.8599395751953" y1="758.4094085693359" y2="781.5640411376953" /><line stroke="rgb(0%,0%,0%)" stroke-width="2" x1="155.85971069335938" x2="155.8599395751953" y1="960.0426483154297" y2="781.5640411376953" /><line stroke="rgb(0%,0%,0%)" stroke-width="2" x1="423.29888916015625" x2="423.29888916015625" y1="974.5190238952637" y2="812.8264465332031" /><line stroke="rgb(0%,0%,0%)" stroke-width="2" x1="477.0437316894531" x2="423.29888916015625" y1="752.6322174072266" y2="812.8264465332031" /><line stroke="rgb(0%,0%,0%)" stroke-width="2" x1="373.3670654296875" x2="423.29888916015625" y1="756.9013519287109" y2="812.8264465332031" /><line stroke="rgb(0%,0%,0%)" stroke-width="2" x1="488.89898681640625" x2="530.5260009765625" y1="953.3777694702148" y2="1000.0" /><line stroke="rgb(0%,0%,0%)" stroke-width="2" x1="784.1043090820312" x2="770.2968139648438" y1="789.6632843017578" y2="805.127685546875" /><line stroke="rgb(0%,0%,0%)" stroke-width="2" x1="770.2968139648438" x2="770.2968139648438" y1="834.7563171386719" y2="805.127685546875" /><line stroke="rgb(0%,0%,0%)" stroke-width="2" x1="718.8959350585938" x2="770.2968139648438" y1="747.5731964111328" y2="805.127685546875" /><line stroke="rgb(0%,0%,0%)" stroke-width="2" x1="770.2968139648438" x2="764.84130859375" y1="834.7563171386719" y2="840.8664855957031" /><line stroke="rgb(0%,0%,0%)" stroke-width="2" x1="764.84130859375" x2="764.84130859375" y1="852.3753509521484" y2="840.8664855957031" /><line stroke="rgb(0%,0%,0%)" stroke-width="2" x1="683.4651489257812" x2="764.84130859375" y1="749.7542877197266" y2="840.8664855957031" /><line stroke="rgb(0%,0%,0%)" stroke-width="2" x1="611.3050537109375" x2="600.9793090820312" y1="660.6642150878906" y2="672.2290344238281" /><line stroke="rgb(0%,0%,0%)" stroke-width="2" x1="594.6055297851562" x2="600.9793090820312" y1="665.0903930664062" y2="672.2290344238281" /><line stroke="rgb(0%,0%,0%)" stroke-width="2" x1="600.9786376953125" x2="600.9793090820312" y1="742.787109375" y2="672.2290344238281" /><line stroke="rgb(0%,0%,0%)" stroke-width="2" x1="539.2238159179688" x2="539.2238159179688" y1="762.4453735351562" y2="726.7845153808594" /><line stroke="rgb(0%,0%,0%)" stroke-width="2" x1="550.7870483398438" x2="539.2238159179688" y1="713.8337097167969" y2="726.7845153808594" /><line stroke="rgb(0%,0%,0%)" stroke-width="2" x1="453.819580078125" x2="539.2238159179688" y1="631.16015625" y2="726.7845153808594" /><line stroke="rgb(0%,0%,0%)" stroke-width="2" x1="545.7462158203125" x2="532.8016357421875" y1="156.501953125" y2="170.9998779296875" /><line stroke="rgb(0%,0%,0%)" stroke-width="2" x1="532.8016357421875" x2="532.8016357421875" y1="179.953857421875" y2="170.9998779296875" /><line stroke="rgb(0%,0%,0%)" stroke-width="2" x1="488.5826416015625" x2="532.8016357421875" y1="121.4866943359375" y2="170.9998779296875" /><line stroke="rgb(0%,0%,0%)" stroke-width="2" x1="550.7870483398438" x2="550.7870483398438" y1="713.8337097167969" y2="679.5368041992188" /><line stroke="rgb(0%,0%,0%)" stroke-width="2" x1="552.96875" x2="550.7870483398438" y1="677.0932922363281" y2="679.5368041992188" /><line stroke="rgb(0%,0%,0%)" stroke-width="2" x1="488.8520202636719" x2="550.7870483398438" y1="610.1925048828125" y2="679.5368041992188" /><line stroke="rgb(0%,0%,0%)" stroke-width="2" x1="53.61431884765625" x2="53.61431884765625" y1="604.4215087890625" y2="588.5250549316406" /><line stroke="rgb(0%,0%,0%)" stroke-width="2" x1="53.15560531616211" x2="53.61431884765625" y1="588.0112915039062" y2="588.5250549316406" /><line stroke="rgb(0%,0%,0%)" stroke-width="2" x1="133.68553161621094" x2="53.61431884765625" y1="498.87591552734375" y2="588.5250549316406" /><line stroke="rgb(0%,0%,0%)" stroke-width="2" x1="371.2781677246094" x2="371.2781677246094" y1="718.8972778320312" y2="667.1793212890625" /><line stroke="rgb(0%,0%,0%)" stroke-width="2" x1="377.3659362792969" x2="371.2781677246094" y1="660.3610229492188" y2="667.1793212890625" /><line stroke="rgb(0%,0%,0%)" stroke-width="2" x1="354.81585693359375" x2="371.2781677246094" y1="648.7455749511719" y2="667.1793212890625" /><line stroke="rgb(0%,0%,0%)" stroke-width="2" x1="224.52767944335938" x2="228.81446838378906" y1="995.1987957954407" y2="1000.0" /><line stroke="rgb(0%,0%,0%)" stroke-width="2" x1="948.8812866210938" x2="1000.0" y1="320.78155517578125" y2="378.03448486328125" /><line stroke="rgb(0%,0%,0%)" stroke-width="2" x1="14.910911560058594" x2="14.910911560058594" y1="175.85772705078125" y2="0.0" /><line stroke="rgb(0%,0%,0%)" stroke-width="2" x1="14.910911560058594" x2="0.0" y1="175.85772705078125" y2="192.55792236328125" /><line stroke="rgb(0%,0%,0%)" stroke-width="2" x1="351.3622741699219" x2="351.3622741699219" y1="84.82611083984375" y2="0.0" /><line stroke="rgb(0%,0%,0%)" stroke-width="2" x1="251.58026123046875" x2="251.58026123046875" y1="135.0208740234375" y2="0.0" /><line stroke="rgb(0%,0%,0%)" stroke-width="2" x1="441.0313720703125" x2="441.0313720703125" y1="76.30072021484375" y2="0.0" /><line stroke="rgb(0%,0%,0%)" stroke-width="2" x1="111.99424743652344" x2="26.91912078857422" y1="904.7158584594727" y2="1000.0" /><line stroke="rgb(0%,0%,0%)" stroke-width="2" x1="999.4924926757812" x2="1000.0" y1="739.489501953125" y2="740.0579223632812" /><line stroke="rgb(0%,0%,0%)" stroke-width="2" x1="104.83763122558594" x2="0.0" y1="471.22247314453125" y2="588.640625" /><line stroke="rgb(0%,0%,0%)" stroke-width="2" x1="39.16869354248047" x2="0.0" y1="211.40789794921875" y2="255.27685546875" /><line stroke="rgb(0%,0%,0%)" stroke-width="2" x1="971.7542724609375" x2="971.7542724609375" y1="39.45184326171875" y2="0.0" /><line stroke="rgb(0%,0%,0%)" stroke-width="2" x1="611.7923583984375" x2="611.7923583984375" y1="71.8480224609375" y2="0.0" /><line stroke="rgb(0%,0%,0%)" stroke-width="2" x1="392.9609375" x2="392.9609375" y1="85.16412353515625" y2="0.0" /><line stroke="rgb(0%,0%,0%)" stroke-width="2" x1="809.7176513671875" x2="809.7176513671875" y1="117.03485107421875" y2="0.0" /><line stroke="rgb(0%,0%,0%)" stroke-width="2" x1="21.48554801940918" x2="0.0" y1="301.460693359375" y2="325.5245361328125" /><line stroke="rgb(0%,0%,0%)" stroke-width="2" x1="84.95142364501953" x2="0.0" y1="874.3125076293945" y2="969.4581031799316" /><line stroke="rgb(0%,0%,0%)" stroke-width="2" x1="981.463623046875" x2="1000.0" y1="627.3466491699219" y2="648.1073913574219" /><line stroke="rgb(0%,0%,0%)" stroke-width="2" x1="958.2422485351562" x2="1000.0" y1="60.413330078125" y2="107.1820068359375" /><line stroke="rgb(0%,0%,0%)" stroke-width="2" x1="223.05938720703125" x2="223.05938720703125" y1="52.75531005859375" y2="0.0" /><line stroke="rgb(0%,0%,0%)" stroke-width="2" x1="61.72149658203125" x2="0.0" y1="423.0595703125" y2="492.1876525878906" /><line stroke="rgb(0%,0%,0%)" stroke-width="2" x1="672.1854858398438" x2="672.1854858398438" y1="117.596923828125" y2="0.0" /><line stroke="rgb(0%,0%,0%)" stroke-width="2" x1="290.59234619140625" x2="290.59234619140625" y1="130.490234375" y2="0.0" /><line stroke="rgb(0%,0%,0%)" stroke-width="2" x1="138.40567016601562" x2="138.40567016601562" y1="68.6326904296875" y2="0.0" /><line stroke="rgb(0%,0%,0%)" stroke-width="2" x1="806.0172729492188" x2="852.779052734375" y1="947.6268272399902" y2="1000.0" /><line stroke="rgb(0%,0%,0%)" stroke-width="2" x1="769.8203125" x2="769.8203125" y1="125.91534423828125" y2="0.0" /><line stroke="rgb(0%,0%,0%)" stroke-width="2" x1="59.65911102294922" x2="59.65911102294922" y1="182.1473388671875" y2="0.0" /><line stroke="rgb(0%,0%,0%)" stroke-width="2" x1="947.4170532226562" x2="1000.0" y1="163.108642578125" y2="222.00152587890625" /><line stroke="rgb(0%,0%,0%)" stroke-width="2" x1="883.9335327148438" x2="883.9335327148438" y1="86.75299072265625" y2="0.0" /><line stroke="rgb(0%,0%,0%)" stroke-width="2" x1="521.4237670898438" x2="521.4237670898438" y1="118.56256103515625" y2="0.0" /><line stroke="rgb(0%,0%,0%)" stroke-width="2" x1="955.9248046875" x2="1000.0" y1="413.85791015625" y2="463.22210693359375" /><line stroke="rgb(0%,0%,0%)" stroke-width="2" x1="914.6283569335938" x2="1000.0" y1="889.8949432373047" y2="985.5111837387085" /><line stroke="rgb(0%,0%,0%)" stroke-width="2" x1="53.15560531616211" x2="0.0" y1="588.0112915039062" y2="647.5455627441406" /></svg>